<svg width="280" height="178" viewBox="0 0 280 178" fill="none" xmlns="http://www.w3.org/2000/svg">
<g opacity="0.5">
<path opacity="0.5" d="M56.4678 94.7456C78.2223 94.7456 95.8577 77.1153 95.8577 55.3671C95.8577 33.6189 78.2223 15.9885 56.4678 15.9885C34.7133 15.9885 17.0779 33.6189 17.0779 55.3671C17.0779 77.1153 34.7133 94.7456 56.4678 94.7456Z" fill="url(#paint0_linear)"/>
</g>
<path d="M56.5447 93.664C77.8405 93.664 95.1042 76.4053 95.1042 55.1156C95.1042 33.8259 77.8405 16.5671 56.5447 16.5671C35.2488 16.5671 17.9851 33.8259 17.9851 55.1156C17.9851 76.4053 35.2488 93.664 56.5447 93.664Z" fill="#F5F5F5"/>
<path d="M77.7568 58.9139C77.7568 71.7367 68.5408 78.047 56.5754 78.047C44.61 78.047 34.4263 71.7367 34.4263 58.9139C34.4263 46.0912 44.1262 35.6963 56.0916 35.6963C68.057 35.6963 77.7568 46.0912 77.7568 58.9139Z" fill="#333333"/>
<path d="M56.5754 93.8158C64.11 93.8279 71.4814 91.6226 77.7707 87.4749C76.3499 79.7122 70.9429 79.2695 70.9429 79.2695H41.1288C41.1288 79.2695 36.0264 79.6884 34.4326 86.8294C40.915 91.3878 48.65 93.8283 56.5754 93.8158Z" fill="#798193"/>
<path opacity="0.1" d="M50.1643 69.8005H62.0899V79.6707C62.0899 81.1635 61.4968 82.5952 60.4409 83.6508C59.385 84.7064 57.9529 85.2994 56.4597 85.2994H55.7946C54.3014 85.2994 52.8693 84.7064 51.8134 83.6508C50.7575 82.5952 50.1643 81.1635 50.1643 79.6707V69.8005H50.1643Z" fill="black"/>
<path d="M51.2385 69.3591H61.0158C61.3007 69.3591 61.5739 69.4723 61.7753 69.6737C61.9768 69.875 62.0899 70.1482 62.0899 70.433V79.2293C62.0899 80.7221 61.4967 82.1538 60.4409 83.2094C59.385 84.265 57.9529 84.858 56.4596 84.858H55.7946C54.3014 84.858 52.8693 84.265 51.8134 83.2094C50.7575 82.1538 50.1643 80.7221 50.1643 79.2293V70.433C50.1643 70.1482 50.2775 69.875 50.4789 69.6736C50.6804 69.4723 50.9536 69.3591 51.2385 69.3591V69.3591Z" fill="#D4D4D4"/>
<path opacity="0.1" d="M50.1863 74.302C54.0298 75.7376 58.2605 75.7493 62.1119 74.3349V72.8704H50.1863V74.302Z" fill="black"/>
<path d="M56.1708 75.1005C65.6112 75.1005 73.2642 67.4498 73.2642 58.0121C73.2642 48.5744 65.6112 40.9236 56.1708 40.9236C46.7304 40.9236 39.0774 48.5744 39.0774 58.0121C39.0774 67.4498 46.7304 75.1005 56.1708 75.1005Z" fill="#D4D4D4"/>
<path opacity="0.1" d="M36.469 59.1293C36.469 59.1293 47.1135 57.8394 55.1775 47.5205C55.1775 47.5205 65.822 59.2368 73.2409 57.9469C73.2409 57.9469 77.5417 53.4324 73.2409 48.9178C68.9401 44.4033 65.6069 38.7064 59.9084 39.4588C54.2098 40.2112 47.221 40.5337 44.2105 43.2209C41.1999 45.9081 36.469 59.1293 36.469 59.1293Z" fill="black"/>
<path d="M36.469 58.9137C36.469 58.9137 47.1135 57.6238 55.1775 47.3049C55.1775 47.3049 65.822 59.0212 73.2409 57.7313C73.2409 57.7313 77.5417 53.2168 73.2409 48.7023C68.9401 44.1877 65.6069 38.4908 59.9084 39.2432C54.2098 39.9956 47.221 40.3181 44.2105 43.0053C41.1999 45.6926 36.469 58.9137 36.469 58.9137Z" fill="#333333"/>
<path d="M39.0708 60.9762C39.949 60.9762 40.6609 59.6418 40.6609 57.9957C40.6609 56.3496 39.949 55.0151 39.0708 55.0151C38.1926 55.0151 37.4807 56.3496 37.4807 57.9957C37.4807 59.6418 38.1926 60.9762 39.0708 60.9762Z" fill="#D4D4D4"/>
<path d="M73.2622 60.9762C74.1404 60.9762 74.8523 59.6418 74.8523 57.9957C74.8523 56.3496 74.1404 55.0151 73.2622 55.0151C72.384 55.0151 71.6721 56.3496 71.6721 57.9957C71.6721 59.6418 72.384 60.9762 73.2622 60.9762Z" fill="#D4D4D4"/>
<g opacity="0.5">
<path opacity="0.5" d="M223.285 97.5545C245.039 97.5545 262.675 79.9241 262.675 58.1759C262.675 36.4277 245.039 18.7974 223.285 18.7974C201.531 18.7974 183.895 36.4277 183.895 58.1759C183.895 79.9241 201.531 97.5545 223.285 97.5545Z" fill="url(#paint1_linear)"/>
</g>
<path d="M223.362 96.4723C244.658 96.4723 261.921 79.2136 261.921 57.9239C261.921 36.6342 244.658 19.3755 223.362 19.3755C202.066 19.3755 184.802 36.6342 184.802 57.9239C184.802 79.2136 202.066 96.4723 223.362 96.4723Z" fill="#F5F5F5"/>
<path d="M223.393 96.6249C230.927 96.637 238.298 94.4317 244.588 90.284C243.167 82.5213 237.76 82.0786 237.76 82.0786H207.946C207.946 82.0786 202.844 82.4975 201.25 89.6385C207.732 94.1969 215.467 96.6374 223.393 96.6249Z" fill="#798193"/>
<path d="M222.988 75.7183C233.267 75.7183 241.6 67.3879 241.6 57.1119C241.6 46.8358 233.267 38.5054 222.988 38.5054C212.709 38.5054 204.376 46.8358 204.376 57.1119C204.376 67.3879 212.709 75.7183 222.988 75.7183Z" fill="#515151"/>
<path opacity="0.1" d="M216.981 72.6094H228.907V82.4796C228.907 83.9724 228.314 85.404 227.258 86.4596C226.202 87.5152 224.77 88.1082 223.277 88.1082H222.612C221.118 88.1082 219.686 87.5152 218.63 86.4596C217.574 85.404 216.981 83.9724 216.981 82.4796V72.6094Z" fill="black"/>
<path d="M218.055 72.1675H227.833C228.118 72.1675 228.391 72.2806 228.592 72.482C228.794 72.6834 228.907 72.9565 228.907 73.2413V82.0377C228.907 83.5305 228.314 84.9621 227.258 86.0177C226.202 87.0733 224.77 87.6663 223.277 87.6663H222.612C221.118 87.6663 219.686 87.0733 218.63 86.0177C217.574 84.9621 216.981 83.5305 216.981 82.0376V73.2413C216.981 72.9565 217.094 72.6834 217.296 72.482C217.497 72.2806 217.77 72.1675 218.055 72.1675Z" fill="#D4D4D4"/>
<path opacity="0.1" d="M217.003 77.1108C220.847 78.5465 225.078 78.5582 228.929 77.1438V75.6792H217.003V77.1108Z" fill="black"/>
<path d="M222.988 77.9094C232.429 77.9094 240.082 70.2586 240.082 60.8209C240.082 51.3832 232.429 43.7324 222.988 43.7324C213.548 43.7324 205.895 51.3832 205.895 60.8209C205.895 70.2586 213.548 77.9094 222.988 77.9094Z" fill="#D4D4D4"/>
<path opacity="0.1" d="M210.813 45.2769C210.813 45.2769 218.017 59.8954 238.338 51.4037L233.607 43.987L225.22 40.9773L210.813 45.2769Z" fill="black"/>
<path d="M210.813 45.062C210.813 45.062 218.017 59.6805 238.338 51.1889L233.607 43.7721L225.22 40.7625L210.813 45.062Z" fill="#515151"/>
<path d="M210.749 44.0743C211.234 42.571 212.074 41.2061 213.196 40.0944C216.559 36.7718 222.07 36.0703 224.898 32.2817C225.052 32.5498 225.148 32.8471 225.18 33.1545C225.211 33.4619 225.179 33.7726 225.083 34.0666C224.988 34.3605 224.832 34.6312 224.625 34.8612C224.419 35.0912 224.166 35.2753 223.884 35.4018C226.589 35.3843 229.732 35.1473 231.263 32.9176C231.642 33.7985 231.762 34.7688 231.611 35.7156C231.46 36.6624 231.043 37.5469 230.409 38.2661C232.81 38.3751 235.371 40.004 235.526 42.4017C235.63 43.999 234.628 45.5114 233.315 46.4274C231.951 47.274 230.434 47.8452 228.85 48.1087C224.285 49.1147 207.77 53.3314 210.749 44.0743Z" fill="#515151"/>
<path d="M240.082 60.9705H239.628L230.812 68.8172C222.318 64.8401 216.081 68.8172 216.081 68.8172L206.835 61.2929L205.902 61.4101C206.029 65.895 207.915 70.1504 211.152 73.2572C214.39 76.3641 218.721 78.0732 223.208 78.0154C227.696 77.9577 231.981 76.1378 235.138 72.9487C238.295 69.7596 240.071 65.4572 240.082 60.9705V60.9705ZM222.963 71.8269C219.637 71.8269 216.942 71.1531 216.942 70.322C216.942 69.4909 219.637 68.8172 222.963 68.8172C226.288 68.8172 228.984 69.4909 228.984 70.322C228.984 71.1531 226.288 71.8269 222.963 71.8269Z" fill="#515151"/>
<path d="M205.888 63.7851C206.767 63.7851 207.478 62.4506 207.478 60.8045C207.478 59.1584 206.767 57.824 205.888 57.824C205.01 57.824 204.298 59.1584 204.298 60.8045C204.298 62.4506 205.01 63.7851 205.888 63.7851Z" fill="#D4D4D4"/>
<path d="M240.08 63.7851C240.958 63.7851 241.67 62.4506 241.67 60.8045C241.67 59.1584 240.958 57.824 240.08 57.824C239.202 57.824 238.49 59.1584 238.49 60.8045C238.49 62.4506 239.202 63.7851 240.08 63.7851Z" fill="#D4D4D4"/>
<g opacity="0.5">
<path opacity="0.5" d="M139.881 162.16C161.635 162.16 179.271 144.53 179.271 122.781C179.271 101.033 161.635 83.4028 139.881 83.4028C118.126 83.4028 100.491 101.033 100.491 122.781C100.491 144.53 118.126 162.16 139.881 162.16Z" fill="url(#paint2_linear)"/>
</g>
<path d="M139.881 161.115C161.177 161.115 178.441 143.856 178.441 122.566C178.441 101.277 161.177 84.0178 139.881 84.0178C118.585 84.0178 101.322 101.277 101.322 122.566C101.322 143.856 118.585 161.115 139.881 161.115Z" fill="#F5F5F5"/>
<path d="M124.832 122.909C124.832 122.909 120.459 144.441 118.074 143.248C118.074 143.248 141.086 163.119 161.404 143.248C161.404 143.248 157.826 128.076 152.659 122.909H124.832Z" fill="#333333"/>
<path d="M139.989 161.23C147.523 161.242 154.895 159.037 161.184 154.889C159.763 147.126 154.356 146.684 154.356 146.684H124.542C124.542 146.684 119.439 147.103 117.846 154.244C124.328 158.802 132.063 161.243 139.989 161.23Z" fill="#798193"/>
<path d="M139.584 138.806C149.025 138.806 156.678 131.155 156.678 121.717C156.678 112.279 149.025 104.629 139.584 104.629C130.144 104.629 122.491 112.279 122.491 121.717C122.491 131.155 130.144 138.806 139.584 138.806Z" fill="#333333"/>
<path opacity="0.1" d="M133.578 137.215H145.504V147.085C145.504 148.578 144.91 150.01 143.854 151.065C142.799 152.121 141.366 152.714 139.873 152.714H139.208C137.715 152.714 136.283 152.121 135.227 151.065C134.171 150.01 133.578 148.578 133.578 147.085V137.215Z" fill="black"/>
<path d="M134.652 136.773H144.429C144.714 136.773 144.987 136.887 145.189 137.088C145.39 137.289 145.504 137.562 145.504 137.847V146.644C145.504 148.136 144.91 149.568 143.854 150.624C142.799 151.679 141.366 152.272 139.873 152.272H139.208C137.715 152.272 136.283 151.679 135.227 150.624C134.171 149.568 133.578 148.136 133.578 146.644V137.847C133.578 137.562 133.691 137.289 133.892 137.088C134.094 136.887 134.367 136.773 134.652 136.773H134.652Z" fill="#DEDEDE"/>
<path opacity="0.1" d="M133.599 141.717C137.443 143.152 141.674 143.164 145.525 141.75V140.285H133.599V141.717Z" fill="black"/>
<path d="M139.584 142.515C149.025 142.515 156.678 134.864 156.678 125.426C156.678 115.989 149.025 108.338 139.584 108.338C130.144 108.338 122.491 115.989 122.491 125.426C122.491 134.864 130.144 142.515 139.584 142.515Z" fill="#DEDEDE"/>
<path d="M123.242 118.935H155.838C155.838 118.935 153.056 105.777 140.733 106.616C128.409 107.455 123.242 118.935 123.242 118.935Z" fill="#333333"/>
<path d="M122.844 127.678C123.723 127.678 124.435 126.344 124.435 124.698C124.435 123.052 123.723 121.717 122.844 121.717C121.966 121.717 121.254 123.052 121.254 124.698C121.254 126.344 121.966 127.678 122.844 127.678Z" fill="#DEDEDE"/>
<path d="M156.236 127.678C157.115 127.678 157.826 126.344 157.826 124.698C157.826 123.052 157.115 121.717 156.236 121.717C155.358 121.717 154.646 123.052 154.646 124.698C154.646 126.344 155.358 127.678 156.236 127.678Z" fill="#DEDEDE"/>
<path opacity="0.1" d="M123.242 119.377H155.838C155.838 119.377 153.056 106.218 140.733 107.057C128.409 107.896 123.242 119.377 123.242 119.377Z" fill="black"/>
<path d="M139.881 86.8893C146.982 86.8893 153.924 88.9943 159.828 92.9382C165.732 96.882 170.333 102.488 173.051 109.046C175.768 115.604 176.479 122.821 175.094 129.783C173.709 136.746 170.289 143.141 165.268 148.161C160.247 153.18 153.85 156.599 146.886 157.984C139.921 159.368 132.702 158.658 126.142 155.941C119.582 153.225 113.975 148.624 110.03 142.722C106.085 136.819 103.979 129.88 103.979 122.781C103.979 118.068 104.908 113.401 106.712 109.046C108.516 104.691 111.161 100.735 114.495 97.4018C117.828 94.0689 121.786 91.4251 126.142 89.6214C130.498 87.8177 135.167 86.8893 139.881 86.8893ZM139.881 78.0256C131.027 78.0256 122.371 80.6505 115.009 85.5683C107.647 90.4861 101.909 97.476 98.5206 105.654C95.1322 113.832 94.2456 122.831 95.973 131.513C97.7004 140.194 101.964 148.169 108.225 154.428C114.486 160.687 122.463 164.95 131.147 166.677C139.832 168.404 148.833 167.518 157.014 164.13C165.194 160.743 172.186 155.006 177.105 147.646C182.024 140.286 184.65 131.633 184.65 122.781C184.637 110.915 179.915 99.5394 171.523 91.1491C163.13 82.7587 151.751 78.039 139.881 78.0256Z" fill="#D2D9E9"/>
<path d="M143.747 67.563H133.253V78.6067H143.747V67.563Z" fill="#D2D9E9"/>
<path d="M162.463 72.0367L156.774 81.5029L165.769 86.9064L171.459 77.4402L162.463 72.0367Z" fill="#D2D9E9"/>
<path d="M184.818 90.1235L175.156 95.4775L180.244 104.654L189.905 99.2995L184.818 90.1235Z" fill="#D2D9E9"/>
<path d="M180.87 140.387L175.309 149.284L184.677 155.136L190.238 146.239L180.87 140.387Z" fill="#D2D9E9"/>
<path d="M94.945 90.1235L89.8572 99.2996L99.519 104.654L104.607 95.4776L94.945 90.1235Z" fill="#D2D9E9"/>
<path d="M98.8922 140.387L89.5239 146.239L95.0852 155.136L104.453 149.284L98.8922 140.387Z" fill="#D2D9E9"/>
<path d="M117.299 72.0372L108.303 77.4407L113.993 86.9069L122.988 81.5034L117.299 72.0372Z" fill="#D2D9E9"/>
<path d="M143.747 166.956H133.253V178H143.747V166.956Z" fill="#D2D9E9"/>
<path d="M165.769 158.656L156.774 164.059L162.463 173.525L171.459 168.122L165.769 158.656Z" fill="#D2D9E9"/>
<path d="M113.993 158.655L108.303 168.122L117.299 173.525L122.988 164.059L113.993 158.655Z" fill="#D2D9E9"/>
<path d="M96.2459 118.364H83.542V127.751H96.2459V118.364Z" fill="#D2D9E9"/>
<path d="M183.517 127.75H196.221V118.363H183.517V127.75Z" fill="#D2D9E9"/>
<path d="M223.285 22.2833C230.386 22.2833 237.327 24.3884 243.231 28.3322C249.135 32.2761 253.737 37.8816 256.454 44.44C259.172 50.9984 259.883 58.2151 258.497 65.1774C257.112 72.1398 253.693 78.5351 248.672 83.5547C243.651 88.5743 237.254 91.9927 230.289 93.3776C223.325 94.7625 216.106 94.0517 209.546 91.3351C202.985 88.6186 197.378 84.0182 193.433 78.1158C189.488 72.2134 187.383 65.2741 187.383 58.1753C187.383 48.6562 191.165 39.5269 197.898 32.7959C204.631 26.0648 213.763 22.2833 223.285 22.2833ZM223.285 13.4197C214.431 13.4197 205.775 16.0446 198.413 20.9624C191.051 25.8802 185.313 32.87 181.924 41.0481C178.536 49.2261 177.649 58.2249 179.377 66.9067C181.104 75.5884 185.368 83.5631 191.629 89.8223C197.89 96.0815 205.867 100.344 214.551 102.071C223.235 103.798 232.237 102.912 240.417 99.5241C248.597 96.1366 255.589 90.4002 260.509 83.0402C265.428 75.6802 268.053 67.0271 268.053 58.1753C268.04 46.3095 263.319 34.9335 254.926 26.5431C246.533 18.1527 235.154 13.4331 223.285 13.4197Z" fill="#D2D9E9"/>
<path d="M227.152 2.95752H216.657V14.0012H227.152V2.95752Z" fill="#D2D9E9"/>
<path d="M245.867 7.43142L240.178 16.8977L249.173 22.3012L254.863 12.8349L245.867 7.43142Z" fill="#D2D9E9"/>
<path d="M268.221 25.518L258.559 30.8721L263.647 40.0481L273.309 34.6941L268.221 25.518Z" fill="#D2D9E9"/>
<path d="M264.274 75.7812L258.712 84.6785L268.081 90.5307L273.642 81.6334L264.274 75.7812Z" fill="#D2D9E9"/>
<path d="M178.349 25.5175L173.261 34.6936L182.923 40.0477L188.01 30.8716L178.349 25.5175Z" fill="#D2D9E9"/>
<path d="M182.297 75.7813L172.928 81.6335L178.489 90.5308L187.858 84.6786L182.297 75.7813Z" fill="#D2D9E9"/>
<path d="M200.703 7.43169L191.707 12.8352L197.397 22.3015L206.392 16.898L200.703 7.43169Z" fill="#D2D9E9"/>
<path d="M227.152 102.35H216.657V113.394H227.152V102.35Z" fill="#D2D9E9"/>
<path d="M249.175 94.0491L240.179 99.4526L245.869 108.919L254.864 103.515L249.175 94.0491Z" fill="#D2D9E9"/>
<path d="M197.397 94.0498L191.707 103.516L200.703 108.92L206.392 99.4534L197.397 94.0498Z" fill="#D2D9E9"/>
<path d="M179.65 53.7581H166.946V63.1452H179.65V53.7581Z" fill="#D2D9E9"/>
<path d="M266.92 63.1453H279.624V53.7581H266.92V63.1453Z" fill="#D2D9E9"/>
<path d="M56.4548 19.5226C56.8762 19.5226 57.2989 19.5299 57.7229 19.5446C67.1291 19.8714 76.0308 23.8777 82.5115 30.701C88.9922 37.5243 92.5336 46.6188 92.3733 56.0266C92.2129 65.4344 88.3637 74.403 81.6542 81.0016C74.9448 87.6002 65.9117 91.301 56.4999 91.3073C56.0784 91.3073 55.6557 91.3 55.2317 91.2853C45.8255 90.9585 36.9238 86.9522 30.4431 80.1289C23.9624 73.3056 20.421 64.2111 20.5814 54.8033C20.7417 45.3955 24.5909 36.4269 31.3004 29.8283C38.0098 23.2297 47.0429 19.5289 56.4548 19.5226ZM56.4574 10.6589V19.5226L56.4567 10.6589C44.7196 10.6644 33.4541 15.2776 25.0859 23.5052C16.7177 31.7328 11.9162 42.9166 11.7153 54.6486C11.5144 66.3805 15.9301 77.7222 24.0116 86.2313C32.0932 94.7405 43.1941 99.7365 54.9241 100.144C55.4477 100.162 55.9777 100.171 56.4998 100.171C68.2368 100.165 79.502 95.5516 87.8698 87.3238C96.2376 79.0961 101.039 67.9122 101.239 56.1804C101.44 44.4486 97.0243 33.1072 88.9428 24.5982C80.8612 16.0893 69.7604 11.0934 58.0305 10.6863C57.507 10.6681 56.9778 10.6589 56.4574 10.6589Z" fill="#D2D9E9"/>
<path d="M51.7697 -0.000166448L51.3865 11.0369L61.8747 11.4009L62.2579 0.363829L51.7697 -0.000166448Z" fill="#D2D9E9"/>
<path d="M80.8076 5.48507L74.793 14.7483L83.5956 20.4606L89.6102 11.1974L80.8076 5.48507Z" fill="#D2D9E9"/>
<path d="M102.52 24.3351L92.6782 29.3508L97.4446 38.6978L107.286 33.6821L102.52 24.3351Z" fill="#D2D9E9"/>
<path d="M96.8301 74.4313L90.9634 83.1304L100.123 89.304L105.99 80.605L96.8301 74.4313Z" fill="#D2D9E9"/>
<path d="M12.7018 21.2181L7.29858 30.2122L16.7688 35.8981L22.172 26.9041L12.7018 21.2181Z" fill="#D2D9E9"/>
<path d="M14.9022 71.588L5.33643 77.1118L10.5856 86.1967L20.1513 80.6728L14.9022 71.588Z" fill="#D2D9E9"/>
<path d="M35.6699 3.91809L26.4922 9.00635L31.8498 18.6643L41.0275 13.576L35.6699 3.91809Z" fill="#D2D9E9"/>
<path d="M48.3203 99.3331L47.937 110.37L58.4252 110.734L58.8085 99.6971L48.3203 99.3331Z" fill="#D2D9E9"/>
<path d="M81.1051 92.1654L71.9275 97.2537L77.2851 106.912L86.4628 101.823L81.1051 92.1654Z" fill="#D2D9E9"/>
<path d="M29.3594 90.3696L23.3447 99.6328L32.1473 105.345L38.162 96.0818L29.3594 90.3696Z" fill="#D2D9E9"/>
<path d="M13.0219 49.4863L0.325684 49.0457L-9.12408e-05 58.4271L12.6962 58.8678L13.0219 49.4863Z" fill="#D2D9E9"/>
<path d="M99.9138 61.8946L112.61 62.3352L112.936 52.9537L100.24 52.5131L99.9138 61.8946Z" fill="#D2D9E9"/>
<defs>
<linearGradient id="paint0_linear" x1="56.4678" y1="94.7456" x2="56.4678" y2="15.9885" gradientUnits="userSpaceOnUse">
<stop stop-color="#808080" stop-opacity="0.25"/>
<stop offset="0.53514" stop-color="#808080" stop-opacity="0.12"/>
<stop offset="1" stop-color="#808080" stop-opacity="0.1"/>
</linearGradient>
<linearGradient id="paint1_linear" x1="49331.7" y1="14754.6" x2="49331.7" y2="2858.18" gradientUnits="userSpaceOnUse">
<stop stop-color="#808080" stop-opacity="0.25"/>
<stop offset="0.53514" stop-color="#808080" stop-opacity="0.12"/>
<stop offset="1" stop-color="#808080" stop-opacity="0.1"/>
</linearGradient>
<linearGradient id="paint2_linear" x1="36650.1" y1="24577.9" x2="36650.1" y2="12681.6" gradientUnits="userSpaceOnUse">
<stop stop-color="#808080" stop-opacity="0.25"/>
<stop offset="0.53514" stop-color="#808080" stop-opacity="0.12"/>
<stop offset="1" stop-color="#808080" stop-opacity="0.1"/>
</linearGradient>
</defs>
</svg>
