<svg width="321" height="173" viewBox="0 0 321 173" fill="none" xmlns="http://www.w3.org/2000/svg">
<g clip-path="url(#clip0)">
<path d="M174.191 91.5156V91.8913C174.19 95.3416 172.812 98.6504 170.361 101.09C167.909 103.529 164.585 104.899 161.118 104.899H13.5662C10.1003 104.898 6.77651 103.528 4.32579 101.089C1.87507 98.6492 0.498133 95.341 0.497803 91.8913V91.5156H174.191Z" fill="#F2F2F2"/>
<path d="M31.3584 29.5951C20.6954 32.2164 11.1232 24.0512 9.4519 16.4762L10.1943 16.3441C19.1817 14.3668 29.2142 20.7611 31.3584 29.5951Z" fill="#C1DCFF"/>
<path d="M289.102 169.879C286.019 168.554 285.318 163.725 287.899 161.585C290.48 159.446 295.125 161.005 295.877 164.264L293 143.781C292.338 139.072 291.809 133.808 294.668 129.999C297.346 126.432 302.576 125.289 306.775 126.825C310.974 128.36 314.078 132.19 315.394 136.446C316.711 140.701 316.4 145.325 315.251 149.628C314.101 153.931 312.148 157.973 310.172 161.968C308.148 166.062 305.693 170.498 301.366 172.005C297.233 173.444 289.102 169.879 289.102 169.879Z" fill="#F2F2F2"/>
<path d="M302.617 126.436C304.507 132.309 305.407 138.453 305.28 144.618C305.161 150.756 304.054 156.835 301.999 162.624C300.83 165.908 299.348 169.073 297.574 172.077C297.498 172.218 297.479 172.383 297.523 172.538C297.566 172.693 297.669 172.825 297.808 172.906C297.947 172.987 298.113 173.011 298.27 172.973C298.427 172.935 298.562 172.837 298.649 172.702C301.833 167.285 304.096 161.381 305.346 155.23C306.614 149.049 306.868 142.705 306.097 136.444C305.664 132.935 304.9 129.474 303.816 126.107C303.572 125.352 302.37 125.675 302.617 126.436Z" fill="white"/>
<path d="M287.274 162.339L297.121 172.639C297.675 173.218 298.553 172.341 298.001 171.764L288.154 161.464C287.601 160.885 286.722 161.762 287.274 162.339Z" fill="white"/>
<path d="M278.909 123.448C278.558 123.449 278.219 123.323 277.954 123.095C271.873 119.154 266.461 114.276 261.919 108.643C261.642 108.381 261.478 108.021 261.463 107.64C261.449 107.259 261.585 106.887 261.842 106.605L264.827 103.324L265.442 103.878L262.457 107.159C262.343 107.284 262.284 107.448 262.293 107.616C262.301 107.784 262.376 107.942 262.501 108.054L262.545 108.1C267.041 113.683 272.403 118.516 278.429 122.417L278.483 122.459C278.608 122.571 278.773 122.63 278.942 122.622C279.111 122.613 279.269 122.539 279.383 122.414L285.207 116.012C285.315 115.893 285.374 115.738 285.371 115.577C285.369 115.417 285.305 115.263 285.193 115.147C283.844 114.415 282.527 113.617 281.278 112.775L281.744 112.092C282.985 112.929 284.295 113.722 285.638 114.448L285.719 114.505C285.861 114.634 285.977 114.789 286.06 114.962C286.142 115.136 286.189 115.323 286.199 115.515C286.209 115.706 286.18 115.898 286.115 116.078C286.05 116.259 285.951 116.425 285.821 116.567L279.997 122.968C279.868 123.111 279.712 123.227 279.538 123.309C279.364 123.391 279.175 123.437 278.983 123.446C278.958 123.448 278.934 123.448 278.909 123.448Z" fill="#3F3D56"/>
<path d="M272.488 112.672C274.317 114.319 276.196 115.223 276.686 114.686C276.749 114.595 276.79 114.49 276.803 114.38C276.816 114.27 276.801 114.158 276.76 114.055C276.562 113.447 276.245 112.884 275.827 112.399C274.201 111.248 272.621 110.005 271.087 108.672C270.605 108.515 270.236 108.519 270.058 108.717C270.033 108.745 270.012 108.777 269.996 108.812C269.689 109.435 270.755 111.107 272.488 112.672Z" fill="#C1DCFF"/>
<path d="M261.465 99.3995C261.48 99.7754 261.644 100.13 261.921 100.386C264.378 103.408 267.079 106.226 269.996 108.811C272.131 110.707 274.391 112.458 276.76 114.054C277.154 114.322 277.552 114.582 277.955 114.838C278.219 115.068 278.558 115.195 278.909 115.193C278.933 115.193 278.958 115.189 278.983 115.189C279.176 115.18 279.365 115.134 279.539 115.051C279.714 114.969 279.87 114.853 279.999 114.71L285.822 108.312C286.083 108.025 286.219 107.646 286.2 107.259C286.18 106.872 286.007 106.508 285.718 106.248L285.64 106.19C279.282 102.772 273.849 97.8766 269.801 91.9195L269.739 91.8452C269.45 91.5853 269.069 91.4502 268.68 91.4696C268.292 91.489 267.926 91.6612 267.665 91.9484L261.842 98.3469C261.713 98.4889 261.613 98.655 261.548 98.8357C261.483 99.0163 261.455 99.208 261.465 99.3995ZM262.294 99.3583C262.29 99.2757 262.302 99.1931 262.329 99.1152C262.357 99.0372 262.4 98.9655 262.456 98.9042L268.279 92.5016C268.335 92.4395 268.403 92.3892 268.48 92.3538C268.556 92.3183 268.638 92.2984 268.722 92.2952C268.875 92.286 269.026 92.333 269.146 92.4273C273.253 98.4583 278.756 103.419 285.192 106.892C285.304 107.007 285.368 107.16 285.371 107.32C285.374 107.48 285.316 107.636 285.208 107.755L279.381 114.157C279.326 114.22 279.258 114.27 279.183 114.306C279.107 114.341 279.025 114.361 278.942 114.364C278.773 114.372 278.608 114.314 278.481 114.203L278.427 114.161C277.548 113.6 276.681 113.012 275.827 112.399C274.201 111.247 272.621 110.004 271.087 108.671C267.988 105.981 265.129 103.028 262.543 99.8454L262.501 99.8C262.377 99.6853 262.303 99.5268 262.294 99.3583V99.3583Z" fill="#3F3D56"/>
<path d="M276.685 106.432C277.172 105.896 276.084 104.125 274.254 102.476C272.424 100.826 270.546 99.9236 270.058 100.459C269.571 100.995 270.659 102.766 272.489 104.415C274.319 106.065 276.198 106.967 276.685 106.432Z" fill="#C1DCFF"/>
<path d="M240.095 167.826L235.01 167.826L232.591 148.305L240.095 148.306L240.095 167.826Z" fill="#D5D5D5"/>
<path d="M241.391 172.731L224.996 172.731V172.524C224.996 171.69 225.161 170.864 225.482 170.094C225.803 169.323 226.273 168.623 226.865 168.033C227.458 167.443 228.161 166.975 228.936 166.656C229.71 166.337 230.54 166.173 231.378 166.173H231.378L241.392 166.173L241.391 172.731Z" fill="#2F2E41"/>
<path d="M255.025 167.826L249.941 167.826L247.522 148.305L255.026 148.306L255.025 167.826Z" fill="#D5D5D5"/>
<path d="M256.322 172.731L239.927 172.731V172.524C239.927 171.69 240.092 170.864 240.413 170.094C240.734 169.323 241.204 168.623 241.796 168.033C242.389 167.443 243.092 166.975 243.867 166.656C244.641 166.337 245.471 166.173 246.309 166.173H246.309L256.322 166.173L256.322 172.731Z" fill="#2F2E41"/>
<path d="M258.438 88.9352L257.223 160.637C257.22 160.864 257.169 161.088 257.074 161.294C256.979 161.501 256.843 161.686 256.673 161.838C256.503 161.989 256.304 162.105 256.087 162.176C255.871 162.248 255.642 162.274 255.414 162.253L249.465 161.715C249.074 161.68 248.709 161.508 248.434 161.23C248.159 160.953 247.991 160.587 247.961 160.198L244.477 115.473C244.469 115.368 244.421 115.27 244.343 115.199C244.264 115.128 244.162 115.09 244.056 115.092C243.95 115.094 243.849 115.136 243.773 115.21C243.698 115.284 243.653 115.384 243.649 115.489L241.908 161.238C241.892 161.665 241.71 162.069 241.401 162.365C241.092 162.662 240.68 162.827 240.251 162.827H233.87C233.447 162.827 233.041 162.667 232.733 162.379C232.425 162.091 232.24 161.696 232.214 161.277L227.747 88.5224L254.29 81.9175L258.438 88.9352Z" fill="#4B5672"/>
<path d="M239.185 21.6089C244.811 21.6089 249.371 17.0695 249.371 11.47C249.371 5.8704 244.811 1.33105 239.185 1.33105C233.559 1.33105 228.999 5.8704 228.999 11.47C228.999 17.0695 233.559 21.6089 239.185 21.6089Z" fill="#D5D5D5"/>
<path d="M226.838 91.0685C226.661 90.8989 226.52 90.696 226.423 90.4718C226.326 90.2475 226.275 90.0062 226.272 89.762L225.585 40.8684C225.544 38.3812 226.295 35.945 227.732 33.9097C229.169 31.8744 231.217 30.3448 233.582 29.5405C234.536 25.231 239.615 24.6912 242.576 24.7557C243.316 24.7716 244.04 24.9645 244.688 25.3183C245.336 25.6721 245.889 26.1762 246.3 26.7879L248.422 29.9569L253.101 32.6865C255.266 33.9443 256.974 35.8542 257.978 38.1406C258.982 40.4269 259.23 42.9716 258.687 45.4077L257.967 48.6686C255.431 60.2103 255.672 72.1854 258.671 83.6167L260.121 89.117C260.196 89.4035 260.202 89.7037 260.137 89.9928C260.072 90.2818 259.939 90.5513 259.748 90.7786C259.558 91.006 259.315 91.1846 259.041 91.2997C258.767 91.4148 258.469 91.463 258.172 91.4402L256.489 91.3112C256.052 91.2783 255.641 91.0931 255.327 90.7883C255.014 90.4834 254.818 90.0784 254.775 89.6443L254.497 86.8716C254.491 86.8206 254.467 86.7734 254.429 86.7391C254.391 86.7047 254.342 86.6857 254.29 86.6857C254.239 86.6857 254.189 86.7047 254.151 86.7391C254.113 86.7734 254.089 86.8206 254.084 86.8716L253.814 89.556C253.769 90.0095 253.557 90.4305 253.22 90.739C252.883 91.0474 252.444 91.2216 251.986 91.2286L228.167 91.5934C228.157 91.5934 228.147 91.5938 228.137 91.5938C227.652 91.5948 227.185 91.4062 226.838 91.0685Z" fill="#7A8295"/>
<path d="M239.982 17.3139C240.024 18.7472 241.023 19.5764 242.251 20.3271C243.478 21.0778 244.913 21.4033 246.318 21.7173C246.507 21.8171 246.719 21.8668 246.932 21.8616C247.146 21.8564 247.355 21.7964 247.538 21.6875C247.722 21.5786 247.874 21.4245 247.981 21.2399C248.087 21.0553 248.144 20.8466 248.145 20.6339L249.435 15.7532C249.891 14.1941 250.223 12.6017 250.427 10.9907C250.738 7.89085 250 4.55624 247.826 2.31501C245.652 0.0737778 241.882 -0.722384 239.277 1.00445C236.186 -2.92536 222.056 5.75706 225.541 8.48975C226.162 8.9759 227.109 8.36075 227.897 8.30113C228.684 8.2415 229.566 8.3793 230.066 8.98729C230.719 9.78161 230.434 10.9648 230.703 11.9557C230.815 12.3044 230.994 12.6276 231.232 12.9069C231.469 13.1861 231.76 13.4158 232.087 13.5826C232.414 13.7495 232.771 13.8503 233.138 13.8791C233.504 13.908 233.873 13.8643 234.222 13.7507C234.873 13.4316 235.485 13.0398 236.047 12.5831C236.651 12.1828 237.413 11.8871 238.093 12.1395C238.989 12.4723 239.307 13.5639 239.388 14.5121C239.525 15.4579 239.723 16.3938 239.982 17.3139Z" fill="#2F2E41"/>
<path opacity="0.2" d="M237.603 44.4873L235.944 64.7148L227.234 85.7678L240.091 65.1276L237.603 44.4873Z" fill="black"/>
<path d="M225.198 93.6075C225.673 93.2275 226.059 92.7484 226.328 92.204C226.598 91.6595 226.744 91.0629 226.756 90.4562C226.769 89.8494 226.647 89.2473 226.401 88.6923C226.154 88.1372 225.789 87.6428 225.329 87.2436L230.878 73.5649L223.329 75.0823L219.217 87.8392C218.595 88.6516 218.293 89.6631 218.37 90.682C218.447 91.7008 218.896 92.6563 219.633 93.3673C220.37 94.0783 221.344 94.4955 222.37 94.5397C223.395 94.584 224.401 94.2523 225.198 93.6075V93.6075Z" fill="#D5D5D5"/>
<path d="M224.794 87.5745L220.52 86.0416C220.08 85.8812 219.716 85.5627 219.5 85.1486C219.284 84.7346 219.231 84.255 219.353 83.8043L226.402 58.1199L227.477 34.9068C227.509 34.2062 227.681 33.5189 227.983 32.885C228.285 32.2511 228.71 31.6832 229.234 31.2144C229.758 30.7455 230.371 30.3851 231.036 30.1539C231.701 29.9228 232.406 29.8257 233.11 29.8681C233.813 29.9105 234.501 30.0918 235.133 30.4012C235.766 30.7106 236.33 31.1421 236.793 31.6705C237.257 32.199 237.61 32.8138 237.832 33.4794C238.055 34.1449 238.142 34.8478 238.089 35.5472L236.17 60.965L227.188 86.4426C227.051 86.8275 226.792 87.1572 226.449 87.3809C226.106 87.6046 225.699 87.71 225.29 87.6807C225.12 87.6679 224.953 87.6321 224.794 87.5745Z" fill="#7A8295"/>
<path d="M268.833 94.9494C269.125 94.4165 269.295 93.8264 269.333 93.2207C269.371 92.615 269.275 92.0084 269.051 91.4437C268.828 90.879 268.483 90.3699 268.041 89.9522C267.598 89.5346 267.069 89.2185 266.491 89.0264L266.317 74.2759L259.938 78.5711L261.081 91.9199C260.821 92.9083 260.935 93.9573 261.4 94.8681C261.865 95.7789 262.65 96.4882 263.605 96.8617C264.561 97.2351 265.621 97.2467 266.584 96.8942C267.548 96.5418 268.348 95.8498 268.833 94.9494L268.833 94.9494Z" fill="#D5D5D5"/>
<path d="M266.125 89.5371L261.588 89.7612C261.12 89.7821 260.661 89.6277 260.301 89.3285C259.941 89.0293 259.707 88.6069 259.645 88.1444L256.208 61.7395L248.214 39.9064C247.973 39.2474 247.866 38.5473 247.899 37.8467C247.932 37.146 248.104 36.4589 248.406 35.8253C248.709 35.1917 249.134 34.6242 249.659 34.1558C250.183 33.6874 250.796 33.3274 251.462 33.0968C252.127 32.8663 252.832 32.7697 253.535 32.8127C254.239 32.8557 254.926 33.0375 255.559 33.3474C256.191 33.6573 256.755 34.0892 257.218 34.618C257.681 35.1468 258.033 35.762 258.255 36.4276L266.323 60.6192L267.896 87.5745C267.919 87.9819 267.807 88.3857 267.578 88.7237C267.348 89.0616 267.013 89.315 266.624 89.4449C266.463 89.498 266.295 89.529 266.125 89.5371Z" fill="#7A8295"/>
<path d="M320.585 172.941H162.569C162.459 172.941 162.354 172.898 162.276 172.82C162.198 172.743 162.155 172.638 162.155 172.529C162.155 172.419 162.198 172.314 162.276 172.237C162.354 172.159 162.459 172.116 162.569 172.116H320.585C320.695 172.116 320.801 172.159 320.878 172.237C320.956 172.314 321 172.419 321 172.529C321 172.638 320.956 172.743 320.878 172.82C320.801 172.898 320.695 172.941 320.585 172.941Z" fill="#252020"/>
<path d="M134.052 83.8173C131.67 83.8173 129.775 83.1122 128.421 81.7214C125.359 78.5778 125.551 72.5185 125.705 67.6497C125.75 66.2334 125.792 64.8954 125.749 63.7747L125.749 63.7577C125.76 61.5681 126.638 59.4711 128.194 57.9224C129.749 56.3736 131.855 55.4982 134.055 55.4863H153.803C156.182 55.4863 158.075 56.1904 159.428 57.5794C162.49 60.7204 162.3 66.7782 162.148 71.6458C162.103 73.0652 162.061 74.406 162.105 75.5287C162.097 77.7216 161.22 79.8228 159.663 81.375C158.107 82.9273 155.998 83.805 153.795 83.8173H134.052ZM126.579 63.7519C126.622 64.8994 126.579 66.2481 126.534 67.6757C126.385 72.3887 126.199 78.2543 129.016 81.1467C130.225 82.3882 131.872 82.9917 134.051 82.9917H153.794C155.775 82.9812 157.672 82.1931 159.073 80.7985C160.474 79.4039 161.265 77.5155 161.276 75.5434C161.231 74.409 161.274 73.0543 161.319 71.62C161.466 66.9082 161.65 61.0441 158.833 58.1542C157.625 56.9146 155.979 56.3119 153.803 56.3119H134.056C132.077 56.3229 130.182 57.1102 128.782 58.503C127.382 59.8958 126.59 61.7818 126.579 63.7519Z" fill="#3F3D56"/>
<path d="M26.9955 30.3547C23.5328 30.3338 20.1454 29.3462 17.2185 27.5043C12.9306 24.8524 9.69296 20.605 8.76911 16.4203L8.67651 16.0008L9.83527 15.7944C18.9567 13.7907 29.2736 20.2478 31.4838 29.3495L31.5807 29.7486L31.1802 29.8471C29.8111 30.1844 28.4059 30.3548 26.9955 30.3547ZM9.67959 16.661C10.6749 20.4998 13.6955 24.3533 17.6563 26.8031C21.4858 29.2425 26.1266 30.0823 30.5737 29.1407C28.2613 20.661 18.5784 14.7106 10.0063 16.6025L9.67959 16.661Z" fill="#3F3D56"/>
<path d="M15.4896 77.2663C12.7761 77.2663 10.5716 76.0577 9.27736 73.853C8.55194 72.5703 8.17063 71.1233 8.17017 69.6514C8.16971 68.1795 8.55011 66.7323 9.27472 65.4491C10.5897 63.2067 12.8467 61.9903 15.6342 62.0328H41.9469C44.7249 61.9975 46.9837 63.2085 48.2994 65.4536C49.0241 66.7364 49.4047 68.1833 49.4046 69.655C49.4044 71.1267 49.0236 72.5735 48.2987 73.8562C46.9835 76.096 44.7253 77.2923 41.9406 77.2653H15.6275C15.5814 77.2659 15.5354 77.2662 15.4896 77.2663ZM15.505 62.8574C13.0851 62.8574 11.1304 63.9225 9.9911 65.8654C9.33831 67.0213 8.99562 68.3251 8.99606 69.6512C8.99649 70.9772 9.34004 72.2808 9.99359 73.4364C11.152 75.4101 13.1468 76.4784 15.6213 76.4397H41.9469C44.4239 76.479 46.4249 75.4111 47.5825 73.4396C48.2355 72.284 48.5786 70.9805 48.5787 69.6547C48.5788 68.3288 48.2359 67.0253 47.583 65.8696C46.4246 63.8931 44.4232 62.8288 41.9527 62.8584H15.6255C15.5853 62.8578 15.5449 62.8574 15.505 62.8574H15.505Z" fill="#3F3D56"/>
<path d="M140.804 65.3029H132.509C131.959 65.3029 131.432 65.0854 131.043 64.6983C130.654 64.3112 130.436 63.7862 130.436 63.2388C130.436 62.6914 130.654 62.1664 131.043 61.7793C131.432 61.3923 131.959 61.1748 132.509 61.1748H140.804C141.354 61.1748 141.881 61.3923 142.27 61.7793C142.659 62.1664 142.878 62.6914 142.878 63.2388C142.878 63.7862 142.659 64.3112 142.27 64.6983C141.881 65.0854 141.354 65.3029 140.804 65.3029Z" fill="#C1DCFF"/>
<path d="M140.804 71.9078H132.509C131.959 71.9078 131.432 71.6904 131.043 71.3033C130.654 70.9162 130.436 70.3912 130.436 69.8438C130.436 69.2964 130.654 68.7714 131.043 68.3843C131.432 67.9972 131.959 67.7798 132.509 67.7798H140.804C141.354 67.7798 141.881 67.9972 142.27 68.3843C142.659 68.7714 142.878 69.2964 142.878 69.8438C142.878 70.3912 142.659 70.9162 142.27 71.3033C141.881 71.6904 141.354 71.9078 140.804 71.9078Z" fill="#C1DCFF"/>
<path d="M140.804 78.5123H132.509C131.959 78.5123 131.432 78.2949 131.043 77.9078C130.654 77.5207 130.436 76.9957 130.436 76.4483C130.436 75.9009 130.654 75.3759 131.043 74.9888C131.432 74.6017 131.959 74.3843 132.509 74.3843H140.804C141.354 74.3843 141.881 74.6017 142.27 74.9888C142.659 75.3759 142.878 75.9009 142.878 76.4483C142.878 76.9957 142.659 77.5207 142.27 77.9078C141.881 78.2949 141.354 78.5123 140.804 78.5123Z" fill="#C1DCFF"/>
<path d="M155.32 65.3029H147.025C146.475 65.3029 145.948 65.0854 145.559 64.6983C145.17 64.3112 144.951 63.7862 144.951 63.2388C144.951 62.6914 145.17 62.1664 145.559 61.7793C145.948 61.3923 146.475 61.1748 147.025 61.1748H155.32C155.87 61.1748 156.397 61.3923 156.786 61.7793C157.175 62.1664 157.394 62.6914 157.394 63.2388C157.394 63.7862 157.175 64.3112 156.786 64.6983C156.397 65.0854 155.87 65.3029 155.32 65.3029Z" fill="#C1DCFF"/>
<path d="M155.32 71.9078H147.025C146.475 71.9078 145.948 71.6904 145.559 71.3033C145.17 70.9162 144.951 70.3912 144.951 69.8438C144.951 69.2964 145.17 68.7714 145.559 68.3843C145.948 67.9972 146.475 67.7798 147.025 67.7798H155.32C155.87 67.7798 156.397 67.9972 156.786 68.3843C157.175 68.7714 157.394 69.2964 157.394 69.8438C157.394 70.3912 157.175 70.9162 156.786 71.3033C156.397 71.6904 155.87 71.9078 155.32 71.9078Z" fill="#C1DCFF"/>
<path d="M155.32 78.5123H147.025C146.475 78.5123 145.948 78.2949 145.559 77.9078C145.17 77.5207 144.951 76.9957 144.951 76.4483C144.951 75.9009 145.17 75.3759 145.559 74.9888C145.948 74.6017 146.475 74.3843 147.025 74.3843H155.32C155.87 74.3843 156.397 74.6017 156.786 74.9888C157.175 75.3759 157.394 75.9009 157.394 76.4483C157.394 76.9957 157.175 77.5207 156.786 77.9078C156.397 78.2949 155.87 78.5123 155.32 78.5123Z" fill="#C1DCFF"/>
<path d="M174.191 35.9692H0.497803V36.7948H174.191V35.9692Z" fill="#3F3D56"/>
<path d="M160.504 105.139H13.6864C10.0578 105.135 6.57899 103.698 4.01318 101.144C1.44737 98.5903 0.00409887 95.1277 0 91.5161V20.5137C0.00409887 16.902 1.44737 13.4394 4.01318 10.8856C6.57899 8.33173 10.0578 6.89519 13.6864 6.89111H160.504C164.133 6.89519 167.612 8.33173 170.177 10.8856C172.743 13.4394 174.187 16.902 174.191 20.5137V91.5161C174.187 95.1277 172.743 98.5903 170.177 101.144C167.612 103.698 164.133 105.135 160.504 105.139ZM13.6864 7.71672C10.2777 7.72058 7.00976 9.07007 4.59946 11.4691C2.18916 13.8682 0.833352 17.1209 0.829479 20.5137V91.5161C0.833353 94.9089 2.18916 98.1616 4.59947 100.561C7.00977 102.96 10.2777 104.309 13.6864 104.313H160.504C163.913 104.309 167.181 102.96 169.591 100.561C172.001 98.1616 173.357 94.9089 173.361 91.5161V20.5137C173.357 17.1209 172.001 13.8682 169.591 11.4691C167.181 9.07006 163.913 7.72057 160.504 7.71672H13.6864Z" fill="#96A2AA"/>
</g>
<defs>
<clipPath id="clip0">
<rect width="321" height="173" fill="white"/>
</clipPath>
</defs>
</svg>
