<svg width="202" height="253" viewBox="0 0 202 253" fill="none" xmlns="http://www.w3.org/2000/svg">
<g clip-path="url(#clip0)">
<path d="M48.7606 53.9049H0.980469V11.3933H48.7606V53.9049Z" fill="white"/>
<path d="M49.7412 54.8855H0V10.4128H49.7412V54.8855ZM1.96111 52.9244H47.7801V12.3739H1.96111V52.9244Z" fill="#CAD3EA"/>
<path d="M57.9519 229.872L53.1433 229.872L50.8555 211.324L57.9527 211.325L57.9519 229.872Z" fill="#FFB7B7"/>
<path d="M59.1781 234.533L43.6733 234.533V234.337C43.6735 232.736 44.3093 231.201 45.4411 230.069C46.5728 228.938 48.1077 228.302 49.7082 228.302H49.7086L59.1784 228.302L59.1781 234.533Z" fill="#4B5672"/>
<path d="M102.826 226.919L98.129 227.95L91.917 210.325L98.8491 208.803L102.826 226.919Z" fill="#FFB7B7"/>
<path d="M105.023 231.209L89.8787 234.533L89.8366 234.342C89.4935 232.779 89.7854 231.143 90.6481 229.795C91.5108 228.447 92.8736 227.497 94.4369 227.153L94.4373 227.153L103.687 225.123L105.023 231.209Z" fill="#4B5672"/>
<path d="M44.4559 164.718L20.7047 169.842C16.1494 161.254 15.1258 152.284 15.0879 143.801L38.839 138.678C38.472 147.694 40.4049 156.655 44.4559 164.718Z" fill="#004AAD"/>
<path d="M20.5061 148.556L20.3037 147.654L32.6469 145.16L32.8493 146.062L20.5061 148.556Z" fill="white"/>
<path d="M21.3157 152.164L21.1133 151.262L33.4565 148.768L33.6589 149.67L21.3157 152.164Z" fill="white"/>
<path d="M22.1252 155.771L21.9229 154.869L34.2661 152.376L34.4684 153.278L22.1252 155.771Z" fill="white"/>
<path d="M22.9348 159.38L22.7324 158.477L35.0756 155.984L35.278 156.886L22.9348 159.38Z" fill="white"/>
<path d="M23.7444 162.987L23.542 162.086L35.8852 159.592L36.0876 160.494L23.7444 162.987Z" fill="white"/>
<path d="M98.6089 143.672C98.9801 143.118 99.2253 142.489 99.3272 141.831C99.4292 141.172 99.3856 140.499 99.1993 139.858C99.013 139.218 98.6886 138.627 98.249 138.126C97.8094 137.625 97.2652 137.226 96.6549 136.958L96.8701 126.54L90.5709 124.865L90.4736 139.582C90.0911 140.637 90.1091 141.796 90.5239 142.838C90.9388 143.881 91.7218 144.736 92.7246 145.24C93.7274 145.744 94.8802 145.863 95.9648 145.574C97.0493 145.285 97.9901 144.608 98.6089 143.672L98.6089 143.672Z" fill="#FFB7B7"/>
<path d="M200.551 128.819H152.771V86.3076H200.551V128.819Z" fill="white"/>
<path d="M201.531 129.8H151.79V85.3271H201.531V129.8ZM153.751 127.839H199.57V87.2883H153.751V127.839Z" fill="#CAD3EA"/>
<path d="M200.551 53.9049H152.771V11.3933H200.551V53.9049Z" fill="white"/>
<path d="M201.531 54.8855H151.79V10.4128H201.531V54.8855ZM153.751 52.9244H199.57V12.3739H153.751V52.9244Z" fill="#CAD3EA"/>
<path d="M124.46 128.819H76.6797V86.3076H124.46V128.819Z" fill="white"/>
<path d="M125.439 129.8H75.6982V85.3271H125.439V129.8ZM77.6593 127.839H123.478V87.2883H77.6593V127.839Z" fill="#CAD3EA"/>
<path d="M48.7606 128.819H0.980469V86.3076H48.7606V128.819Z" fill="white"/>
<path d="M49.7412 129.8H0V85.3271H49.7412V129.8ZM1.96111 127.839H47.7801V87.2883H1.96111V127.839Z" fill="#CAD3EA"/>
<path d="M124.46 53.9049H76.6797V11.3933H124.46V53.9049Z" fill="white"/>
<path d="M125.439 54.8855H75.6982V10.4128H125.439V54.8855ZM77.6593 52.9244H123.478V12.3739H77.6593V52.9244Z" fill="#CAD3EA"/>
<path d="M117.826 251.711L124.209 239.34C135.989 241.278 138.068 240.882 148.361 239.545L151.098 252.972C140.09 251.304 128.929 250.881 117.826 251.711Z" fill="#E6E6E6"/>
<path d="M144.457 249.48L144.257 242.524L144.988 242.552L145.188 249.508L144.457 249.48Z" fill="white"/>
<path d="M141.531 249.369L141.331 242.414L142.063 242.441L142.263 249.397L141.531 249.369Z" fill="white"/>
<path d="M138.606 249.259L138.406 242.303L139.137 242.33L139.338 249.286L138.606 249.259Z" fill="white"/>
<path d="M49.146 127.268C49.146 127.268 46.8278 128.195 49.146 163.431L50.0733 220.922H59.346L69.7829 142.792L82.5277 179.195L94.1186 222.313L103.391 219.995C103.391 219.995 93.655 132.831 85.3095 127.268C76.9641 121.704 49.146 127.268 49.146 127.268Z" fill="#4B5672"/>
<path d="M67.7665 55.8971C73.0887 55.8971 77.4032 51.5826 77.4032 46.2604C77.4032 40.9383 73.0887 36.6238 67.7665 36.6238C62.4444 36.6238 58.1299 40.9383 58.1299 46.2604C58.1299 51.5826 62.4444 55.8971 67.7665 55.8971Z" fill="#FFB8B8"/>
<path d="M76.9644 61.8952C76.9644 61.8952 68.619 57.7225 60.7372 60.5043C52.8554 63.2861 48.6827 66.5316 48.6827 66.5316L53.7826 93.4224L46.8281 129.586C46.8281 129.586 82.528 126.804 85.7735 129.586C89.0189 132.368 89.0189 126.341 89.0189 126.341L86.2371 92.0315L91.3371 70.2407L76.9644 61.8952Z" fill="#7A8295"/>
<path d="M59.5661 45.5957L61.6061 50.8077C62.442 52.9435 63.3995 55.2286 65.359 56.4205C67.7783 57.8922 71.0092 57.1746 73.3496 55.5804C75.4546 54.1465 77.0704 52.1029 77.9799 49.7239C78.8895 47.345 79.0493 44.7447 78.4379 42.2722C77.8265 39.7998 76.4731 37.5737 74.5595 35.8929C72.646 34.2121 70.2639 33.1571 67.7332 32.8697L67.6364 34.6141L65.4958 32.8198C65.3374 33.0915 65.1196 33.3237 64.8587 33.4991C64.5977 33.6745 64.3005 33.7885 63.9891 33.8325C63.6778 33.8766 63.3606 33.8495 63.0612 33.7533C62.7619 33.6571 62.4882 33.4944 62.2608 33.2773C62.8231 34.4429 62.1741 35.8645 61.2369 36.7574C60.0854 37.8543 56.7923 39.1726 56.9289 41.1334C57.0201 42.442 59.0353 44.2396 59.5661 45.5957Z" fill="#2F2E41"/>
<path d="M41.741 144.288C42.2527 143.861 42.6645 143.327 42.9473 142.723C43.2302 142.119 43.3772 141.461 43.3781 140.794C43.379 140.128 43.2338 139.469 42.9525 138.865C42.6713 138.26 42.261 137.725 41.7505 137.296L44.882 127.357L39.3064 123.981L35.0812 138.079C34.4179 138.984 34.1097 140.101 34.2151 141.219C34.3205 142.336 34.8321 143.376 35.653 144.142C36.4739 144.907 37.5471 145.345 38.6691 145.372C39.7912 145.399 40.8842 145.013 41.741 144.288Z" fill="#FFB7B7"/>
<path d="M51.9281 66.5317H48.6827C48.6827 66.5317 43.5827 69.7772 43.5827 74.4135C43.5827 79.0499 36.1646 133.295 36.1646 133.295L44.0463 134.686L51.0009 96.668L56.1009 86.468L51.9281 66.5317Z" fill="#7A8295"/>
<path d="M82.5273 70.2407H91.3364C91.3364 70.2407 94.1182 73.0225 95.5091 79.5134C96.9 86.0043 98.2909 111.504 98.2909 111.504L97.3637 134.686H90.4091L89.4819 104.55L84.8455 85.0771L82.5273 70.2407Z" fill="#7A8295"/>
<path d="M150.573 234.964H1.13636C1.03234 234.964 0.932569 234.923 0.859013 234.85C0.785458 234.776 0.744141 234.676 0.744141 234.572C0.744141 234.468 0.785458 234.368 0.859013 234.295C0.932569 234.221 1.03234 234.18 1.13636 234.18H150.573C150.677 234.18 150.776 234.221 150.85 234.295C150.924 234.368 150.965 234.468 150.965 234.572C150.965 234.676 150.924 234.776 150.85 234.85C150.776 234.923 150.677 234.964 150.573 234.964Z" fill="#CBCBCB"/>
</g>
<defs>
<clipPath id="clip0">
<rect width="201.531" height="252.972" fill="white"/>
</clipPath>
</defs>
</svg>
