<svg width="247" height="225" viewBox="0 0 247 225" fill="none" xmlns="http://www.w3.org/2000/svg">
<g clip-path="url(#clip0)">
<path d="M84.2561 176.482C84.2576 184.908 81.7209 193.139 76.9763 200.103C72.2317 207.067 65.4991 212.442 57.6556 215.526C57.0404 215.772 56.4138 216.002 55.7844 216.215C55.0812 216.456 54.3705 216.677 53.6522 216.878C53.1532 217.017 52.6495 217.147 52.141 217.269C44.487 219.103 36.4726 218.761 29.0025 216.283C28.4156 216.087 27.8343 215.877 27.2588 215.659C26.4848 215.361 25.7192 215.041 24.9679 214.698C24.9112 214.676 24.8573 214.65 24.8035 214.625C24.5086 214.488 24.2222 214.352 23.9302 214.208H23.9274C23.5276 214.015 23.1316 213.815 22.7394 213.607C21.8378 213.131 20.956 212.623 20.0941 212.085C19.6461 211.807 19.2048 211.519 18.77 211.22C11.9276 206.602 6.60061 200.068 3.45661 192.436C0.312612 184.805 -0.508606 176.415 1.09586 168.319C2.70032 160.223 6.6591 152.781 12.4762 146.924C18.2933 141.067 25.7099 137.057 33.7969 135.395C34.5369 135.242 35.2845 135.11 36.0396 134.999C36.5131 134.925 36.9923 134.862 37.4714 134.809C37.8145 134.769 38.1576 134.732 38.5063 134.704H38.5091C39.4419 134.619 40.3832 134.566 41.333 134.545C41.4635 134.542 41.5939 134.539 41.7271 134.537C41.8009 134.537 41.8746 134.534 41.9483 134.537H41.9511C42.0645 134.534 42.178 134.534 42.2942 134.534C42.7705 134.534 43.2468 134.542 43.7203 134.559C44.7637 134.593 45.7957 134.665 46.8164 134.775C47.4062 134.837 47.9874 134.914 48.5686 134.999C48.6338 135.01 48.7019 135.018 48.7671 135.03C48.9599 135.061 49.1555 135.092 49.3483 135.126C49.7566 135.191 50.1621 135.268 50.5675 135.35C50.9474 135.427 51.3245 135.506 51.7016 135.591C53.0953 135.909 54.4713 136.299 55.8241 136.762C64.9919 139.895 72.7973 146.095 77.9221 154.315C78.0667 154.544 78.2085 154.777 78.3474 155.012C78.4551 155.188 78.5572 155.363 78.6593 155.542C78.6961 155.602 78.7301 155.661 78.7613 155.721C78.784 155.755 78.801 155.789 78.8209 155.823C79.008 156.149 79.1895 156.48 79.3652 156.812C82.5866 162.868 84.2663 169.624 84.2561 176.482Z" fill="white"/>
<path d="M42.2986 218.716C37.7497 218.716 33.2303 217.985 28.9132 216.552C28.3566 216.366 27.7827 216.161 27.1583 215.924C26.3705 215.621 25.5944 215.296 24.8502 214.956C24.8006 214.937 24.7418 214.909 24.6829 214.881C24.4007 214.751 24.1248 214.62 23.8441 214.482L23.8043 214.463C23.4061 214.272 23.0032 214.068 22.6067 213.858C21.7036 213.381 20.8076 212.865 19.9438 212.326C19.4943 212.047 19.0451 211.753 18.6095 211.454C11.7212 206.804 6.35869 200.226 3.19384 192.543C0.0289975 184.86 -0.797449 176.414 0.818043 168.263C2.43354 160.113 6.41912 152.62 12.2755 146.724C18.1318 140.828 25.5984 136.791 33.7399 135.118C34.4822 134.964 35.2421 134.83 35.9982 134.718C36.4461 134.649 36.9318 134.584 37.4397 134.527C37.7851 134.487 38.1313 134.45 38.4833 134.421C39.4176 134.337 40.3743 134.283 41.3268 134.262L41.7973 134.253C41.8512 134.252 41.9051 134.251 41.959 134.253C42.0599 134.25 42.1756 134.25 42.2942 134.25C42.7739 134.25 43.2572 134.259 43.7305 134.276C44.7763 134.31 45.825 134.383 46.8467 134.493C47.3877 134.55 47.9645 134.624 48.6097 134.718L48.8823 134.761C49.0537 134.789 49.2268 134.817 49.3976 134.847C49.7653 134.906 50.1564 134.978 50.6238 135.072C51.0056 135.149 51.3848 135.229 51.764 135.315C53.1675 135.635 54.5533 136.029 55.9157 136.493C65.1406 139.657 72.996 145.896 78.1627 154.165C78.308 154.396 78.451 154.63 78.5916 154.868C78.6984 155.042 78.8019 155.22 78.9054 155.402C78.9386 155.455 78.9736 155.516 79.0061 155.577C79.0219 155.602 79.0359 155.627 79.0498 155.652L79.0659 155.68C79.244 155.991 79.4236 156.317 79.6158 156.679C82.405 161.935 84.0524 167.72 84.4501 173.656C84.8477 179.592 83.9867 185.545 81.9234 191.125C79.86 196.706 76.6409 201.787 72.4767 206.038C68.3126 210.288 63.2974 213.611 57.7594 215.79C57.159 216.03 56.5244 216.264 55.8751 216.483C55.172 216.724 54.4495 216.949 53.7288 217.151C53.2297 217.29 52.7179 217.422 52.2072 217.545C48.9618 218.323 45.636 218.716 42.2986 218.716ZM23.9923 213.925H23.9938L24.0561 213.954C24.3457 214.097 24.6298 214.232 24.9223 214.367C24.9738 214.392 25.0223 214.415 25.0733 214.435C25.8194 214.775 26.5848 215.096 27.3606 215.395C27.9765 215.628 28.5434 215.831 29.0922 216.014C36.5117 218.477 44.4727 218.817 52.075 216.993C52.579 216.873 53.0841 216.742 53.5762 216.605C54.2861 216.406 54.9983 216.184 55.6924 215.947C56.333 215.73 56.9576 215.5 57.5501 215.263C65.3599 212.227 72.0656 206.896 76.7827 199.973C81.4998 193.049 84.0067 184.859 83.9725 176.482V176.482C83.9768 169.67 82.3088 162.962 79.1149 156.945C78.9256 156.588 78.7491 156.267 78.575 155.964L78.554 155.927C78.5451 155.911 78.5364 155.894 78.5256 155.878L78.5102 155.852C78.4821 155.799 78.4514 155.745 78.4182 155.691C78.3125 155.507 78.2119 155.334 78.1057 155.16C77.9657 154.923 77.8254 154.693 77.6822 154.466C72.5847 146.308 64.8342 140.151 55.7323 137.03C54.389 136.571 53.0225 136.183 51.6386 135.868C51.2642 135.783 50.8893 135.704 50.5115 135.628C50.0516 135.535 49.6679 135.464 49.3036 135.406C49.1309 135.376 48.9606 135.348 48.792 135.321L48.52 135.278C47.89 135.186 47.3205 135.113 46.7866 135.057C45.7784 134.948 44.7438 134.876 43.7111 134.843C43.2435 134.826 42.7671 134.817 42.2942 134.817C42.1789 134.818 42.0692 134.817 41.9581 134.82C41.8933 134.818 41.8488 134.819 41.8044 134.819L41.3391 134.829C40.3997 134.849 39.4562 134.902 38.5349 134.986L38.5063 134.987C38.1838 135.014 37.8439 135.051 37.504 135.09C37.003 135.147 36.5254 135.21 36.0832 135.279C35.3356 135.389 34.5865 135.522 33.8543 135.673C25.822 137.323 18.4554 141.306 12.6776 147.124C6.89973 152.941 2.96766 160.333 1.37401 168.374C-0.219644 176.416 0.596002 184.748 3.71875 192.328C6.8415 199.908 12.1325 206.399 18.9287 210.986C19.359 211.281 19.8007 211.57 20.2436 211.844C21.0966 212.377 21.9806 212.886 22.8719 213.357C23.243 213.553 23.6196 213.744 23.9923 213.925Z" fill="#CBCBCB"/>
<path d="M78.2017 167.374C77.7437 167.972 77.16 168.462 76.492 168.81C75.824 169.157 75.0878 169.355 74.3353 169.387C73.5828 169.42 72.8323 169.287 72.1366 168.998C71.441 168.71 70.8171 168.272 70.309 167.716L59.2382 171.721L55.1626 165.589L70.8763 160.153C71.8668 159.361 73.1135 158.961 74.3799 159.027C75.6462 159.093 76.8444 159.621 77.7474 160.511C78.6504 161.401 79.1954 162.591 79.2791 163.856C79.3628 165.121 78.9795 166.373 78.2017 167.374Z" fill="#D4D4D4"/>
<path d="M43.6079 167.945L66.4159 160.408L70.2594 168.795L48.9949 175.314L43.6079 167.945Z" fill="#7A8295"/>
<path d="M52.141 217.269C44.4869 219.103 36.4726 218.761 29.0024 216.283L29.5128 211.459L29.9863 206.952L37.0886 195.974L39.3653 192.457L48.7472 195.867L49.7027 201.89L51.2252 211.496L52.141 217.269Z" fill="#2F2E41"/>
<path d="M57.6554 215.526C57.0402 215.773 56.4136 216.002 55.7841 216.215C55.081 216.456 54.3703 216.677 53.652 216.878C53.153 217.017 52.6493 217.147 52.1408 217.269C44.4868 219.103 36.4724 218.761 29.0023 216.283C28.4154 216.087 27.8341 215.878 27.2586 215.659C27.3371 217.338 27.2859 219.02 27.1055 220.69C26.2864 218.733 25.5728 216.732 24.9677 214.698C24.9252 214.562 24.8855 214.426 24.8458 214.29C24.6473 213.604 24.4715 212.95 24.3127 212.335C24.1313 211.623 23.9753 210.963 23.8449 210.359C23.3261 207.989 23.1616 206.524 23.1616 206.524L28.7046 195.017L29.8131 195.144L30.2725 195.195L33.051 195.513L37.0884 195.975L43.6294 196.72L49.7025 201.89L55.1434 206.524C55.1434 206.524 55.597 208.066 56.3087 210.62C56.6943 211.992 57.1507 213.655 57.6554 215.526Z" fill="#4B5672"/>
<path d="M40.0827 138.978C45.4992 138.978 49.8901 134.589 49.8901 129.174C49.8901 123.759 45.4992 119.37 40.0827 119.37C34.6663 119.37 30.2754 123.759 30.2754 129.174C30.2754 134.589 34.6663 138.978 40.0827 138.978Z" fill="#D4D4D4"/>
<path d="M46.9095 149.828C46.9095 149.828 44.5524 142.544 39.0091 142.544C37.6233 142.544 35.3869 142.659 33.5688 143.845C26.2494 148.62 21.7966 156.736 21.4555 165.466L19.7512 209.082C19.7512 209.082 29.1322 212.492 32.5434 211.213C35.9547 209.934 39.3659 201.409 39.3659 201.409C39.3659 201.409 38.5131 212.918 41.9243 212.492C45.3356 212.066 58.1278 211.213 58.5542 209.508C58.9806 207.803 52.0264 171.141 52.0264 171.141L46.9095 149.828Z" fill="#7A8295"/>
<path d="M35.3151 132.049C36.1949 131.996 37.054 132.294 37.9277 132.41C41.0536 132.824 44.3056 130.557 44.9958 127.481C45.0511 127.071 45.1732 126.673 45.3573 126.303C45.8384 125.518 46.934 125.368 47.8372 125.549C48.7405 125.73 49.5966 126.152 50.5165 126.2C51.9367 126.275 53.3002 125.401 54.0571 124.197C54.814 122.993 55.0283 121.512 54.9261 120.094L54.2453 120.809C53.9686 120.224 53.8618 119.573 53.937 118.93C53.5762 118.834 53.1968 118.832 52.835 118.924C52.4733 119.017 52.1414 119.201 51.8711 119.458C51.2708 119.522 51.7239 118.345 51.2779 117.938C51.0609 117.805 50.8024 117.757 50.552 117.802C49.2748 117.815 48.2416 116.838 47.2352 116.052C45.4914 114.693 43.4522 113.763 41.2824 113.338C39.8402 113.056 38.3066 113.011 36.9389 113.548C35.8157 113.989 34.8755 114.792 34.0057 115.628C31.8644 117.686 29.9683 120.105 29.0774 122.938C28.3532 125.258 28.3327 127.741 29.0185 130.073C29.3774 131.285 30.4592 135.432 32.0429 135.529C34.0329 135.65 32.8381 132.197 35.3151 132.049Z" fill="#2F2E41"/>
<path opacity="0.1" d="M39.456 162.736L29.4132 177.461L26.2014 211.664L39.456 162.736Z" fill="black"/>
<path d="M82.0197 153.735C82.2601 153.398 82.3525 153.052 82.2262 152.962C82.0999 152.872 81.8026 153.072 81.5623 153.409C81.322 153.746 81.2296 154.092 81.3559 154.182C81.4822 154.272 81.7794 154.072 82.0197 153.735Z" fill="#3F3D56"/>
<path d="M68.6267 169.599C68.3437 169.398 68.1525 169.091 68.0951 168.749C68.0378 168.406 68.119 168.054 68.321 167.771L79.7432 151.767C79.9451 151.484 80.2513 151.293 80.5942 151.236C80.9372 151.178 81.2889 151.26 81.5719 151.462L68.6267 169.599L68.6267 169.599Z" fill="#004AAD"/>
<path d="M69.0957 171.199L68.4348 170.727C68.3214 170.647 68.225 170.544 68.1512 170.426C68.0773 170.308 68.0275 170.176 68.0045 170.039C67.9815 169.901 67.9859 169.761 68.0172 169.625C68.0486 169.489 68.1064 169.361 68.1873 169.248L81.1924 151.026C81.3305 150.832 81.5397 150.702 81.774 150.663C82.0084 150.623 82.2487 150.679 82.4421 150.817L83.2375 151.384L69.0957 171.199H69.0957Z" fill="#2F2E41"/>
<path d="M80.7997 152.866L79.9294 154.085L80.2344 154.302L81.1047 153.083L80.7997 152.866Z" fill="#D0CDE1"/>
<path d="M79.6032 154.542L78.7329 155.761L79.0379 155.979L79.9081 154.759L79.6032 154.542Z" fill="#D0CDE1"/>
<path d="M28.4813 222.82C28.9213 222.209 29.2219 221.509 29.3619 220.769C29.5019 220.029 29.478 219.268 29.2918 218.538C29.1056 217.808 28.7616 217.129 28.2841 216.546C27.8066 215.964 27.2072 215.493 26.5281 215.168L27.1642 203.415L20.1142 201.287L19.4491 217.896C18.9774 219.073 18.9539 220.382 19.383 221.575C19.8121 222.768 20.6641 223.762 21.7774 224.369C22.8908 224.976 24.1881 225.153 25.4237 224.868C26.6592 224.582 27.7471 223.854 28.4813 222.82H28.4813Z" fill="#D4D4D4"/>
<path d="M28.4438 213.153H18.2446L15.4382 181.747L15.4479 181.718L24.9939 153.691C25.3301 152.704 25.8681 151.798 26.5737 151.031C27.2793 150.263 28.1371 149.651 29.0925 149.233C30.0478 148.815 31.0797 148.6 32.1225 148.603C33.1654 148.606 34.1962 148.825 35.1494 149.248C36.1027 149.671 36.9574 150.287 37.6592 151.058C38.361 151.83 38.8944 152.738 39.2256 153.727C39.5568 154.715 39.6784 155.762 39.5828 156.8C39.4871 157.838 39.1763 158.845 38.67 159.756L27.4373 179.979L28.4438 213.153Z" fill="#7A8295"/>
<path d="M246.716 76.9521C246.724 85.2188 244.291 93.3038 239.721 100.194C235.152 107.083 228.649 112.472 221.029 115.682C213.409 118.893 205.011 119.784 196.886 118.243C188.762 116.702 181.273 112.797 175.36 107.019C169.446 101.241 165.37 93.8465 163.642 85.7622C161.915 77.6779 162.613 69.2638 165.65 61.5745C168.686 53.8853 173.925 47.2633 180.711 42.5385C187.496 37.8137 195.526 35.1964 203.793 35.0148C203.924 35.0119 204.054 35.0091 204.187 35.0063C204.375 35.0034 204.564 35.0034 204.754 35.0034C205.231 35.0034 205.707 35.0119 206.181 35.0289C207.224 35.0629 208.256 35.1347 209.277 35.2443C209.866 35.3067 210.448 35.3832 211.029 35.4683C211.094 35.4796 211.162 35.4881 211.227 35.4994C213.626 35.8691 215.987 36.4486 218.284 37.2312C226.577 40.0584 233.777 45.4083 238.875 52.5313C243.974 59.6543 246.716 68.1934 246.716 76.9521Z" fill="white"/>
<path d="M204.715 119.262C181.418 119.263 162.454 100.326 162.432 77.0309C162.422 65.974 166.746 55.3532 174.476 47.4457C182.207 39.5382 192.729 34.9736 203.787 34.7307L204.181 34.7221C204.849 34.7125 205.529 34.7211 206.191 34.7449C207.235 34.7791 208.284 34.852 209.307 34.9619C209.849 35.0191 210.425 35.0929 211.07 35.1872L211.276 35.2195C221.234 36.7652 230.31 41.8226 236.863 49.4769C243.415 57.1313 247.011 66.877 247 76.9515V76.9512C247.022 100.259 228.071 119.239 204.756 119.261L204.715 119.262ZM204.75 35.2862C204.563 35.2862 204.376 35.2862 204.192 35.289L203.8 35.2975C181.281 35.7922 162.978 54.5136 162.999 77.0303C163.021 100.012 181.732 118.694 204.715 118.695H204.755C227.758 118.673 246.454 99.9471 246.433 76.9517V76.9515C246.444 67.0115 242.896 57.3958 236.43 49.8439C229.965 42.2921 221.01 37.3029 211.184 35.7789L210.98 35.7469C210.351 35.6547 209.781 35.582 209.247 35.5256C208.237 35.4171 207.203 35.3452 206.171 35.3115C205.704 35.2946 205.227 35.2862 204.754 35.2862H204.75Z" fill="#CBCBCB"/>
<path d="M172.646 79.2165C172.729 79.0854 172.513 78.7998 172.164 78.5785C171.814 78.3572 171.464 78.284 171.381 78.415C171.298 78.5461 171.514 78.8317 171.863 79.053C172.213 79.2744 172.563 79.3475 172.646 79.2165Z" fill="#3F3D56"/>
<path d="M171.42 76.7774C171.512 76.632 171.632 76.5062 171.773 76.4071C171.913 76.3079 172.072 76.2375 172.24 76.1998C172.408 76.1621 172.582 76.1578 172.752 76.1873C172.921 76.2167 173.084 76.2792 173.229 76.3713L189.844 86.8894C189.989 86.9815 190.115 87.1013 190.214 87.242C190.314 87.3828 190.384 87.5416 190.422 87.7096C190.459 87.8775 190.464 88.0512 190.434 88.2208C190.405 88.3904 190.342 88.5525 190.25 88.6979L171.42 76.7774V76.7774Z" fill="#004AAD"/>
<path d="M169.848 77.3339L170.371 76.5088C170.498 76.3081 170.7 76.1661 170.932 76.1141C171.164 76.062 171.407 76.1042 171.607 76.2312L190.525 88.207C190.643 88.2815 190.745 88.3785 190.825 88.4924C190.905 88.6063 190.962 88.7349 190.993 88.8708C191.023 89.0067 191.027 89.1473 191.003 89.2845C190.979 89.4218 190.928 89.553 190.854 89.6707L190.419 90.3564L169.848 77.3339H169.848Z" fill="#2F2E41"/>
<path d="M172.665 77.7871L172.464 78.1035L173.73 78.9049L173.931 78.5885L172.665 77.7871Z" fill="#D0CDE1"/>
<path d="M174.405 78.8892L174.205 79.2056L175.471 80.0069L175.671 79.6906L174.405 78.8892Z" fill="#D0CDE1"/>
<path d="M204.867 39.3213C211.389 39.3213 216.676 34.0357 216.676 27.5156C216.676 20.9955 211.389 15.71 204.867 15.71C198.345 15.71 193.057 20.9955 193.057 27.5156C193.057 34.0357 198.345 39.3213 204.867 39.3213Z" fill="#DEDEDE"/>
<path d="M216.113 117.347C206.532 120.022 196.313 119.224 187.264 115.094L188.171 90.8599L188.239 88.9751L188.265 88.3628L188.296 87.4615L188.319 86.8861C188.319 86.8861 188.355 86.8833 188.426 86.8805C188.619 86.8663 189.064 86.8351 189.702 86.7983C190.442 86.7558 191.437 86.7019 192.597 86.6537C192.872 86.6424 193.156 86.631 193.448 86.6169C199.555 86.3901 209.093 86.3419 210.354 88.1814L210.513 89.2642L210.768 91.013L211.29 94.5871C211.29 94.5871 217.221 106.378 216.113 117.347Z" fill="#4B5672"/>
<path d="M219.111 56.2261L216.785 77.705L212.355 87.5008L210.713 91.1333L186.95 90.8453L189.398 74.2886C185.942 65.3623 194.151 61.763 194.151 61.763L202.666 44.3218C202.666 44.3218 204.934 43.188 210.857 42.9027C216.363 42.6374 212.023 43.4715 212.023 43.4715C219.223 42.7516 219.111 56.2261 219.111 56.2261Z" fill="#7A8295"/>
<path opacity="0.2" d="M211.965 78.8383L207.535 88.6342C206.112 85.9736 205.029 82.9602 205.029 81.1808C205.029 76.2857 209.926 78.8772 209.926 78.8772C209.926 78.8772 205.965 57.2095 205.965 50.7307C205.965 46.4274 209.554 65.5253 211.965 78.8383Z" fill="black"/>
<path d="M218.477 20.3233C217.709 18.449 216.52 16.7761 215.003 15.4334C215.625 15.2249 216.145 14.7874 216.456 14.2099C216.911 13.3104 216.67 12.1825 216.052 11.3774C215.488 10.6973 214.76 10.1731 213.936 9.85518C214.539 10.1297 215.2 10.2567 215.862 10.2257C216.666 10.1422 217.469 9.51205 217.421 8.73019C217.376 7.98534 216.643 7.48168 215.985 7.09297C215.558 6.84081 215.131 6.58866 214.705 6.33653C214.831 6.09157 214.943 5.83898 215.038 5.58024C215.406 4.63958 215.495 3.61263 215.294 2.62275C215.092 1.63287 214.609 0.722159 213.903 0C215.3 1.42219 214.943 3.62322 213.563 5.4094C213.518 5.46696 213.47 5.52309 213.424 5.5799C213.151 5.41826 212.877 5.25661 212.603 5.09498C211.921 4.69182 211.212 4.27924 210.419 4.18417C209.627 4.08909 208.724 4.4027 208.401 5.10941C208.054 5.86587 208.448 6.83122 207.997 7.53359C207.602 8.14817 206.74 8.27903 205.993 8.24993C205.245 8.22081 204.451 8.10283 203.786 8.4332C202.862 8.89247 202.559 10.1345 202.97 11.0608C203.153 11.4553 203.425 11.8018 203.765 12.0724C201.787 12.3485 199.839 12.9357 197.925 13.5328C195.668 14.237 193.368 14.9849 191.482 16.4101C189.595 17.8354 188.166 20.0852 188.346 22.4424C188.525 24.7995 190.868 28.5119 193.202 28.1351L193.558 27.0228C194.969 26.352 196.555 26.1385 198.094 26.412C199.633 26.6855 201.048 27.4325 202.142 28.5486C202.169 27.0646 204.429 26.5715 205.555 27.5391C206.681 28.5067 206.898 30.1425 206.985 31.6243C207.072 33.106 207.155 34.7194 208.132 35.8376C209.069 36.9108 210.665 37.2436 212.054 36.9239C213.442 36.6041 214.643 35.7235 215.637 34.7031C219.245 31.0013 220.407 25.118 218.477 20.3233Z" fill="#2F2E41"/>
<path d="M180.81 89.4273C181.422 89.8671 182.122 90.1677 182.862 90.3076C183.602 90.4476 184.364 90.4237 185.094 90.2376C185.824 90.0514 186.504 89.7075 187.086 89.2302C187.669 88.7528 188.139 88.1536 188.465 87.4747L220.635 88.1106L222.764 81.0629L185.736 80.3979C184.559 79.9264 183.249 79.9029 182.056 80.3319C180.863 80.7609 179.868 81.6126 179.261 82.7255C178.654 83.8385 178.476 85.1355 178.762 86.3707C179.047 87.6058 179.776 88.6934 180.81 89.4273V89.4273Z" fill="#DEDEDE"/>
<path d="M212.086 42.3085C212.086 42.3085 204.597 42.8844 204.597 49.3631C204.597 55.8418 211.366 78.8773 211.366 78.8773C211.366 78.8773 206.469 76.2858 206.469 81.1808C206.469 86.0759 214.678 100.329 215.542 90.827C215.542 90.827 227.928 96.8738 227.208 85.5C226.488 74.1262 218.711 50.0829 218.711 50.0829C218.711 50.0829 217.847 41.8765 212.086 42.3085Z" fill="#7A8295"/>
<path d="M119.138 130.858C118.835 130.683 118.539 130.493 118.251 130.286C115.909 128.61 114.329 126.072 113.858 123.231C113.387 120.39 114.062 117.477 115.737 115.132L118.766 110.898L120.199 111.922L117.17 116.156C116.473 117.128 115.975 118.229 115.703 119.393C115.432 120.558 115.393 121.765 115.588 122.944C115.783 124.124 116.209 125.253 116.842 126.268C117.474 127.283 118.3 128.163 119.273 128.858C120.246 129.553 121.347 130.049 122.512 130.319C123.678 130.589 124.885 130.626 126.065 130.429C127.246 130.232 128.376 129.805 129.391 129.172C130.406 128.538 131.287 127.711 131.983 126.738L144.706 108.957C145.402 107.984 145.9 106.884 146.17 105.72C146.441 104.555 146.48 103.349 146.284 102.17C146.089 100.991 145.663 99.8618 145.03 98.8476C144.398 97.8334 143.572 96.9538 142.599 96.259C141.627 95.5641 140.527 95.0677 139.362 94.7979C138.197 94.5282 136.99 94.4905 135.81 94.6869C134.63 94.8834 133.5 95.3101 132.485 95.9428C131.47 96.5755 130.589 97.4018 129.893 98.3744L125.388 104.67L123.955 103.646L128.46 97.3504C130.138 95.0069 132.678 93.4248 135.522 92.9519C138.365 92.479 141.279 93.154 143.623 94.8286C145.967 96.5032 147.549 99.0401 148.021 101.882C148.492 104.723 147.816 107.636 146.139 109.981L133.416 127.762C131.844 129.958 129.512 131.491 126.872 132.064C124.233 132.636 121.476 132.206 119.138 130.858Z" fill="#C1DCFF"/>
<path d="M98.2352 142.894C97.9368 142.721 97.6446 142.533 97.3587 142.329C95.017 140.652 93.4371 138.114 92.9657 135.273C92.4943 132.432 93.1699 129.519 94.8443 127.174L107.568 109.393C109.245 107.048 111.786 105.465 114.63 104.992C117.474 104.518 120.388 105.193 122.733 106.868C125.077 108.543 126.659 111.081 127.131 113.923C127.602 116.765 126.924 119.679 125.247 122.023L121.904 126.694L120.471 125.67L123.814 120.999C124.51 120.026 125.007 118.926 125.278 117.762C125.549 116.597 125.588 115.391 125.392 114.212C125.196 113.033 124.77 111.904 124.138 110.89C123.506 109.876 122.68 108.996 121.707 108.301C120.734 107.606 119.634 107.11 118.469 106.84C117.304 106.57 116.098 106.533 114.918 106.729C113.738 106.926 112.608 107.352 111.593 107.985C110.578 108.618 109.697 109.444 109.001 110.417L96.2773 128.198C95.5805 129.171 95.0822 130.271 94.8109 131.436C94.5395 132.6 94.5004 133.807 94.6958 134.987C94.8912 136.166 95.3172 137.295 95.9496 138.31C96.5819 139.325 97.4082 140.205 98.3811 140.9C99.3541 141.595 100.455 142.091 101.62 142.361C102.786 142.631 103.993 142.668 105.173 142.471C106.353 142.275 107.483 141.847 108.499 141.214C109.514 140.581 110.395 139.754 111.09 138.78L115.47 132.66L116.903 133.684L112.523 139.804C110.948 141.999 108.614 143.531 105.973 144.102C103.332 144.673 100.574 144.242 98.2352 142.894Z" fill="#C1DCFF"/>
</g>
<defs>
<clipPath id="clip0">
<rect width="247" height="225" fill="white"/>
</clipPath>
</defs>
</svg>
